ground reactions
version=1
nRows=60
nColumns=19
inDegrees=no
endheader
time	ground_force_l_vx	ground_force_l_vy	ground_force_l_vz	ground_force_l_px	ground_force_l_py	ground_force_l_pz	ground_torque_l_x	ground_torque_l_y	ground_torque_l_z	ground_force_r_vx	ground_force_r_vy	ground_force_r_vz	ground_force_r_px	ground_force_r_py	ground_force_r_pz	ground_torque_r_x	ground_torque_r_y	ground_torque_r_z
1.408333	-47.934228	558.014596	34.739802	1.011189	0.000000	-0.558455	0.000000	0.630668	0.000000	-0.000000	0.000000	0.000000	0.000000	0.000000	-0.000000	0.000000	-0.000000	0.000000
1.409375	-47.490090	555.908527	34.655868	1.010404	0.000000	-0.558571	0.000000	0.600123	0.000000	-0.000000	0.000000	0.000000	0.000000	0.000000	-0.000000	0.000000	-0.000000	0.000000
1.410417	-47.049887	553.841597	34.572655	1.009623	0.000000	-0.558684	0.000000	0.570129	0.000000	-0.000000	0.000000	0.000000	0.000000	0.000000	-0.000000	0.000000	-0.000000	0.000000
1.411458	-46.613666	551.814071	34.490282	1.008846	0.000000	-0.558796	0.000000	0.540799	0.000000	-0.000000	0.000000	0.000000	0.000000	0.000000	-0.000000	0.000000	-0.000000	0.000000
1.412500	-46.181473	549.826164	34.408864	1.008073	0.000000	-0.558905	0.000000	0.512240	0.000000	-0.000000	0.000000	0.000000	0.000000	0.000000	-0.000000	0.000000	-0.000000	0.000000
1.413542	-45.753349	547.878037	34.328504	1.007304	0.000000	-0.559012	0.000000	0.484553	0.000000	-0.000000	0.000000	0.000000	0.000000	0.000000	-0.000000	0.000000	-0.000000	0.000000
1.414583	-45.329326	545.969800	34.249293	1.006539	0.000000	-0.559118	0.000000	0.457833	0.000000	-0.000000	0.000000	0.000000	0.000000	0.000000	-0.000000	0.000000	-0.000000	0.000000
1.415625	-44.909426	544.101512	34.171303	1.005779	0.000000	-0.559222	0.000000	0.432164	0.000000	-0.000000	0.000000	0.000000	-0.000000	-0.000000	0.000000	0.000000	-0.000000	0.000000
1.416667	-44.493662	542.273183	34.094589	1.005021	0.000000	-0.559326	0.000000	0.407625	0.000000	-0.000000	0.000000	0.000000	-0.000000	-0.000000	0.000000	0.000000	-0.000000	0.000000
1.417708	-44.082030	540.484771	34.019181	1.004267	0.000000	-0.559428	0.000000	0.384282	0.000000	-0.000000	0.000000	0.000000	-0.000000	-0.000000	0.000000	0.000000	-0.000000	0.000000
1.418750	-43.674512	538.736187	33.945092	1.003514	0.000000	-0.559529	0.000000	0.362195	0.000000	-0.000000	0.000000	0.000000	-0.000000	-0.000000	0.000000	0.000000	-0.000000	0.000000
1.419792	-43.271074	537.027295	33.872306	1.002764	0.000000	-0.559630	0.000000	0.341412	0.000000	-0.000000	0.000000	0.000000	-0.000000	-0.000000	0.000000	0.000000	-0.000000	0.000000
1.420833	-42.871666	535.357915	33.800788	1.002013	0.000000	-0.559730	0.000000	0.321972	0.000000	-0.000000	0.000000	0.000000	-0.000000	-0.000000	0.000000	0.000000	-0.000000	0.000000
1.421875	-42.476222	533.727824	33.730483	1.001262	0.000000	-0.559829	0.000000	0.303904	0.000000	-0.000000	0.000000	0.000000	-0.000000	-0.000000	0.000000	0.000000	-0.000000	0.000000
1.422917	-42.084658	532.136759	33.661316	1.000509	0.000000	-0.559928	0.000000	0.287224	0.000000	-0.000000	0.000000	0.000000	-0.000000	-0.000000	0.000000	0.000000	-0.000000	0.000000
1.423958	-41.696879	530.584422	33.593196	0.999753	0.000000	-0.560027	0.000000	0.271941	0.000000	-0.000000	0.000000	0.000000	-0.000000	-0.000000	0.000000	0.000000	-0.000000	0.000000
1.425000	-41.312776	529.070482	33.526022	0.998992	0.000000	-0.560125	0.000000	0.258052	0.000000	-0.000000	0.000000	0.000000	-0.000000	-0.000000	0.000000	0.000000	-0.000000	0.000000
1.426042	-40.932231	527.594581	33.459684	0.998227	0.000000	-0.560222	0.000000	0.245544	0.000000	-0.000000	0.000000	0.000000	0.000000	0.000000	-0.000000	0.000000	-0.000000	0.000000
1.427083	-40.555118	526.156341	33.394068	0.997455	0.000000	-0.560319	0.000000	0.234395	0.000000	-0.000000	0.000000	0.000000	0.000000	0.000000	-0.000000	0.000000	-0.000000	0.000000
1.428125	-40.181309	524.755362	33.329063	0.996676	0.000000	-0.560414	0.000000	0.224573	0.000000	-0.000000	0.000000	0.000000	0.000000	0.000000	-0.000000	0.000000	-0.000000	0.000000
1.429167	-39.810671	523.391237	33.264564	0.995889	0.000000	-0.560509	0.000000	0.216036	0.000000	-0.000000	0.000000	0.000000	0.000000	0.000000	-0.000000	0.000000	-0.000000	0.000000
1.430208	-39.443077	522.063551	33.200476	0.995093	0.000000	-0.560602	0.000000	0.208736	0.000000	-0.000000	0.000000	0.000000	0.000000	0.000000	-0.000000	0.000000	-0.000000	0.000000
1.431250	-39.078403	520.771889	33.136720	0.994289	0.000000	-0.560693	0.000000	0.202614	0.000000	-0.000000	0.000000	0.000000	0.000000	0.000000	-0.000000	0.000000	-0.000000	0.000000
1.432292	-38.716537	519.515840	33.073233	0.993475	0.000000	-0.560783	0.000000	0.197605	0.000000	-0.000000	0.000000	0.000000	0.000000	0.000000	-0.000000	0.000000	-0.000000	0.000000
1.433333	-38.357374	518.295006	33.009975	0.992651	0.000000	-0.560871	0.000000	0.193637	0.000000	-0.000000	0.000000	0.000000	0.000000	0.000000	-0.000000	0.000000	-0.000000	0.000000
1.434375	-38.000824	517.109002	32.946931	0.991818	0.000000	-0.560957	0.000000	0.190632	0.000000	-0.000000	0.000000	0.000000	0.000000	0.000000	-0.000000	0.000000	-0.000000	0.000000
1.435417	-37.646815	515.957465	32.884107	0.990977	0.000000	-0.561040	0.000000	0.188506	0.000000	-0.000000	0.000000	0.000000	0.000000	0.000000	-0.000000	0.000000	-0.000000	0.000000
1.436458	-37.295286	514.840053	32.821537	0.990127	0.000000	-0.561121	0.000000	0.187172	0.000000	-0.000000	0.000000	0.000000	0.000000	-0.000000	0.000000	0.000000	-0.000000	0.000000
1.437500	-36.946196	513.756453	32.759276	0.989270	0.000000	-0.561199	0.000000	0.186535	0.000000	-0.000000	0.000000	0.000000	-0.000000	-0.000000	0.000000	0.000000	-0.000000	0.000000
1.438542	-36.599519	512.706383	32.697402	0.988406	0.000000	-0.561273	0.000000	0.186500	0.000000	-0.000000	0.000000	0.000000	-0.000000	-0.000000	0.000000	0.000000	-0.000000	0.000000
1.439583	-36.255243	511.689591	32.636011	0.987537	0.000000	-0.561345	0.000000	0.186969	0.000000	-0.000000	0.000000	0.000000	-0.000000	-0.000000	0.000000	0.000000	-0.000000	0.000000
1.440625	-35.913371	510.705859	32.575214	0.986664	0.000000	-0.561413	0.000000	0.187842	0.000000	-0.000000	0.000000	0.000000	-0.000000	-0.000000	0.000000	0.000000	-0.000000	0.000000
1.441667	-35.573915	509.755005	32.515130	0.985788	0.000000	-0.561478	0.000000	0.189017	0.000000	-0.000000	0.000000	0.000000	-0.000000	-0.000000	0.000000	0.000000	-0.000000	0.000000
1.442708	-35.236892	508.836879	32.455882	0.984911	0.000000	-0.561539	0.000000	0.190392	0.000000	-0.000000	0.000000	0.000000	-0.000000	-0.000000	0.000000	0.000000	-0.000000	0.000000
1.443750	-34.902326	507.951368	32.397592	0.984033	0.000000	-0.561596	0.000000	0.191867	0.000000	-0.000000	0.000000	0.000000	-0.000000	-0.000000	0.000000	0.000000	-0.000000	0.000000
1.444792	-34.570237	507.098391	32.340370	0.983157	0.000000	-0.561648	0.000000	0.193341	0.000000	-0.000000	0.000000	0.000000	-0.000000	-0.000000	0.000000	0.000000	-0.000000	0.000000
1.445833	-34.240641	506.277901	32.284311	0.982282	0.000000	-0.561697	0.000000	0.194715	0.000000	-0.000000	0.000000	0.000000	-0.000000	-0.000000	0.000000	0.000000	-0.000000	0.000000
1.446875	-33.913546	505.489880	32.229489	0.981412	0.000000	-0.561740	0.000000	0.195894	0.000000	-0.000000	0.000000	0.000000	-0.000000	-0.000000	0.000000	0.000000	-0.000000	0.000000
1.447917	-33.588942	504.734342	32.175945	0.980545	0.000000	-0.561779	0.000000	0.196785	0.000000	-0.000000	0.000000	0.000000	0.000000	0.000000	-0.000000	0.000000	-0.000000	0.000000
1.448958	-33.266803	504.011327	32.123688	0.979684	0.000000	-0.561813	0.000000	0.197298	0.000000	-0.000000	0.000000	0.000000	0.000000	0.000000	-0.000000	0.000000	-0.000000	0.000000
1.450000	-32.947082	503.320900	32.072685	0.978829	0.000000	-0.561841	0.000000	0.197348	0.000000	-0.000000	0.000000	0.000000	0.000000	0.000000	-0.000000	0.000000	-0.000000	0.000000
1.451042	-32.629703	502.663152	32.022860	0.977980	0.000000	-0.561864	0.000000	0.196854	0.000000	-0.000000	0.000000	0.000000	0.000000	0.000000	-0.000000	0.000000	-0.000000	0.000000
1.452083	-32.314567	502.038192	31.974089	0.977138	0.000000	-0.561882	0.000000	0.195741	0.000000	-0.000000	0.000000	0.000000	0.000000	0.000000	-0.000000	0.000000	-0.000000	0.000000
1.453125	-32.001540	501.446150	31.926199	0.976301	0.000000	-0.561894	0.000000	0.193939	0.000000	-0.000000	0.000000	0.000000	0.000000	0.000000	-0.000000	0.000000	-0.000000	0.000000
1.454167	-31.690461	500.887173	31.878968	0.975471	0.000000	-0.561901	0.000000	0.191383	0.000000	-0.000000	0.000000	0.000000	0.000000	0.000000	-0.000000	0.000000	-0.000000	0.000000
1.455208	-31.381137	500.361421	31.832128	0.974645	0.000000	-0.561903	0.000000	0.188016	0.000000	-0.000000	0.000000	0.000000	0.000000	0.000000	-0.000000	0.000000	-0.000000	0.000000
1.456250	-31.073345	499.869067	31.785363	0.973825	0.000000	-0.561899	0.000000	0.183785	0.000000	-0.000000	0.000000	0.000000	0.000000	0.000000	-0.000000	0.000000	-0.000000	0.000000
1.457292	-30.766832	499.410295	31.738317	0.973007	0.000000	-0.561890	0.000000	0.178646	0.000000	-0.000000	0.000000	0.000000	0.000000	0.000000	-0.000000	0.000000	-0.000000	0.000000
1.458333	-30.461321	498.985295	31.690602	0.972192	0.000000	-0.561876	0.000000	0.172559	0.000000	-0.000000	0.000000	0.000000	0.000000	-0.000000	0.000000	0.000000	-0.000000	0.000000
1.459375	-30.156512	498.594263	31.641797	0.971377	0.000000	-0.561857	0.000000	0.165494	0.000000	-0.000000	0.000000	0.000000	-0.000000	-0.000000	0.000000	0.000000	-0.000000	0.000000
1.460417	-29.852085	498.237396	31.591464	0.970562	0.000000	-0.561834	0.000000	0.157424	0.000000	-0.000000	0.000000	0.000000	-0.000000	-0.000000	0.000000	0.000000	-0.000000	0.000000
1.461458	-29.547708	497.914891	31.539155	0.969744	0.000000	-0.561808	0.000000	0.148333	0.000000	-0.000000	0.000000	0.000000	-0.000000	-0.000000	0.000000	0.000000	-0.000000	0.000000
1.462500	-29.243036	497.626942	31.484417	0.968921	0.000000	-0.561779	0.000000	0.138207	0.000000	-0.000000	0.000000	0.000000	-0.000000	-0.000000	0.000000	0.000000	-0.000000	0.000000
1.463542	-28.937722	497.373736	31.426810	0.968093	0.000000	-0.561746	0.000000	0.127042	0.000000	-0.000000	0.000000	0.000000	-0.000000	-0.000000	0.000000	0.000000	-0.000000	0.000000
1.464583	-28.631419	497.155449	31.365910	0.967256	0.000000	-0.561712	0.000000	0.114839	0.000000	-0.000000	0.000000	0.000000	-0.000000	-0.000000	0.000000	0.000000	-0.000000	0.000000
1.465625	-28.323787	496.972244	31.301325	0.966410	0.000000	-0.561677	0.000000	0.101605	0.000000	-0.000000	0.000000	0.000000	-0.000000	-0.000000	0.000000	0.000000	-0.000000	0.000000
1.466667	-28.014493	496.824266	31.232701	0.965552	0.000000	-0.561641	0.000000	0.087352	0.000000	-0.000000	0.000000	0.000000	-0.000000	-0.000000	0.000000	0.000000	-0.000000	0.000000
1.467708	-27.703224	496.711640	31.159733	0.964681	0.000000	-0.561604	0.000000	0.072097	0.000000	-0.000000	0.000000	0.000000	-0.000000	-0.000000	0.000000	0.000000	-0.000000	0.000000
1.468750	-27.389681	496.634463	31.082173	0.963796	0.000000	-0.561568	0.000000	0.055863	0.000000	-0.000000	0.000000	0.000000	-0.000000	-0.000000	0.000000	0.000000	-0.000000	0.000000
1.469792	-27.073592	496.592807	30.999836	0.962895	0.000000	-0.561533	0.000000	0.038676	0.000000	-0.000000	0.000000	0.000000	0.000000	0.000000	-0.000000	0.000000	-0.000000	0.000000
